<svg width="230px" height="39px" viewBox="0 0 230 39" version="1.1" xmlns="http://www.w3.org/2000/svg" xmlns:xlink="http://www.w3.org/1999/xlink">
    <g id="Logo" stroke="none" stroke-width="1" fill="none" fill-rule="evenodd">
        <g id="kofa-logo">
            <path d="M24.6439888,19.3205763 L57.9917667,38.5 L33.3905894,38.5 L33.0446491,38.3022475 L17.0224206,29.1433008 C16.2382295,28.7021933 15.5279061,28.2669662 14.8909822,27.8368358 C14.3483813,27.470404 13.8507011,27.0841438 13.3984375,26.6776254 L13.3984375,38.5 L0.5078125,38.5 L0.5078125,0.0859375 L13.3984375,0.0859375 L13.3984375,12.3147642 C13.9466638,11.8083987 14.5645034,11.3226174 15.2514979,10.8564426 C15.9405397,10.3888785 16.7221133,9.90446571 17.5812505,9.41138414 L33.3793721,0.0859375 L57.7011421,0.0859375 L24.6439888,19.3205763 Z M76.7421875,0.2265625 L102.898438,0.2265625 C104.582848,0.2265625 106.205419,0.581640381 107.751987,1.28787653 C109.270652,1.98137128 110.606865,2.91627933 111.752377,4.08822557 C112.892349,5.25450517 113.804731,6.60114591 114.485951,8.12079114 C115.181762,9.67298331 115.53125,11.3039284 115.53125,13 L115.53125,26.1015625 C115.53125,27.2353061 115.368328,28.3305053 115.041971,29.3820988 C114.721216,30.4156421 114.270355,31.3887895 113.690763,32.298303 C113.114701,33.2022761 112.427991,34.0263287 111.632852,34.7684579 C110.844527,35.5042287 109.980839,36.1399376 109.043678,36.6742073 C108.098813,37.2128683 107.096122,37.6280798 106.03836,37.9189643 C104.970873,38.2125232 103.87616,38.359375 102.757812,38.359375 L75.453125,38.359375 C73.6687429,38.359375 71.9885061,38.0418499 70.4230841,37.4050681 C68.8589563,36.7688128 67.4962133,35.878131 66.3458187,34.7366542 C65.1959547,33.5957039 64.2927109,32.2386135 63.6395171,30.6762444 C62.9831103,29.1061903 62.65625,27.4056335 62.65625,25.5859375 L62.65625,12.1796875 C62.65625,10.3966522 63.0750888,8.73970756 63.9110433,7.23315225 C64.7201109,5.77505232 65.7976837,4.51936834 67.1349758,3.47433212 C68.4486571,2.44774675 69.9408016,1.64962293 71.6044855,1.08069476 C73.2685525,0.511635581 74.9833103,0.2265625 76.7421875,0.2265625 Z M103.226562,12.390625 L74.84375,12.390625 L74.84375,26.4765625 L103.226562,26.4765625 L103.226562,12.390625 Z M135.21875,12.390625 L135.21875,13.234375 L174.875,13.234375 L174.875,25.1171875 L135.21875,25.1171875 L135.21875,38.5 L123.335938,38.5 L123.335938,13.140625 C123.335938,10.9328969 123.743929,8.99937257 124.575377,7.35455173 C125.396998,5.72917107 126.514844,4.38144504 127.920312,3.32734375 C129.297628,2.29435721 130.895267,1.53942884 132.702482,1.06155951 C134.455097,0.598127579 136.302618,0.3671875 138.242188,0.3671875 L174.96875,0.3671875 L174.96875,12.390625 L135.21875,12.390625 Z M208.033857,11.1170524 L212.868611,10.0875525 L212.828352,9.89814768 L207.144877,11.1128273 L207.041918,11.0832672 L206.993227,11.2816925 L206.996188,11.2825368 L206.978623,11.3417511 L207.107547,11.3142982 L212.776704,12.931221 L212.830078,12.7450859 L207.834033,11.3106886 L213.020111,11.3106886 L213.020111,11.1170524 L208.033857,11.1170524 Z M198.522662,11.1170524 L193.539993,11.1170524 L193.539993,11.3106886 L198.721679,11.3106886 L193.725634,12.7450859 L193.779008,12.931221 L199.448509,11.3141998 L199.577896,11.3417511 L199.568682,11.3106886 L199.570099,11.3106886 L199.554221,11.2480149 L199.513794,11.0832672 L199.41118,11.1127285 L193.728167,9.89814768 L193.687907,10.0875525 L198.522662,11.1170524 Z M210.983534,29.2421875 L195.178822,29.2421875 L190.303822,38.5 L176.785562,38.5 L177.917624,36.3109613 L191.698924,9.66242812 C192.41732,8.27352816 193.113762,7.02473593 193.789015,5.91539208 C194.506394,4.73684028 195.291847,3.72265602 196.147918,2.87532081 C197.049264,1.98317182 198.077452,1.29308193 199.224597,0.812020927 C200.389246,0.323619983 201.733066,0.0859375 203.25,0.0859375 C204.747078,0.0859375 206.0638,0.331663751 207.192708,0.83871539 C208.295175,1.33389126 209.283305,2.04236223 210.150273,2.95544586 C210.971226,3.82006632 211.72867,4.86155166 212.426243,6.07805127 C213.077224,7.21329891 213.774038,8.49211024 214.517125,9.91504177 L229.444261,38.5 L216.303846,38.5 L210.983534,29.2421875 Z M205.89117,15.6248813 L204.617552,20.6756396 L209.712761,20.6667246 L205.89117,15.6248813 Z M201.887655,20.6804161 L200.608671,15.5547616 L196.759995,20.6893879 L201.887655,20.6804161 Z M201.001411,6.0859375 L199.507812,9.0859375 L202.491074,9.0859375 L201.001411,6.0859375 Z M205.50411,6.0859375 L204.009995,9.0859375 L206.996307,9.0859375 L205.50411,6.0859375 Z M203.231863,26.0859375 L207.564925,9.0859375 L199,9.0859375 L203.231863,26.0859375 Z" id="KOFA" fill-opacity="0.35" fill="#FFFFFF" fill-rule="nonzero"></path>
            <path d="M-7.27968921,14.2776774 C-7.17890746,14.2776774 -7.08883512,14.2944741 -7.00946949,14.3280681 C-6.93010386,14.361662 -6.86291703,14.407223 -6.80790699,14.4647526 C-6.75289695,14.5222822 -6.71069523,14.5890491 -6.68130055,14.6650553 C-6.65190587,14.7410616 -6.63720876,14.8214758 -6.63720876,14.9063005 L-6.63720876,15.5487809 C-6.63720876,15.6336055 -6.65274571,15.7133899 -6.68382008,15.7881364 C-6.71489446,15.8628828 -6.75772606,15.92839 -6.81231617,15.9846598 C-6.86690629,16.0409296 -6.93115369,16.0852309 -7.00506031,16.1175651 C-7.07896693,16.1498992 -7.15875128,16.166066 -7.24441577,16.166066 L-8.62385909,16.166066 C-8.70868373,16.166066 -8.79035771,16.1501092 -8.8688835,16.118195 C-8.94740928,16.0862807 -9.01690565,16.0423993 -9.0773747,15.9865494 C-9.13784375,15.9306996 -9.18634424,15.8651924 -9.22287763,15.790026 C-9.25941101,15.7148596 -9.27767743,15.6344454 -9.27767743,15.5487809 L-9.27767743,14.8269352 C-9.27767743,14.7446301 -9.25878113,14.6696748 -9.22098798,14.6020671 C-9.18319482,14.5344593 -9.13364454,14.4767206 -9.07233564,14.4288493 C-9.01102674,14.380978 -8.94174032,14.3438153 -8.86447432,14.31736 C-8.78720831,14.2909048 -8.70910362,14.2776774 -8.63015792,14.2776774 L-7.27968921,14.2776774 Z M-8.80022627,14.7652067 L-8.80022627,15.6671989 L-7.10206226,15.6671989 L-7.10206226,14.7652067 L-8.80022627,14.7652067 Z M-4.90136864,14.7677262 L-4.90136864,16.1786637 L-5.38637839,16.1786637 L-5.38637839,14.7387516 L-5.75045065,15.1028239 L-6.09184712,14.7387516 L-5.76430807,14.4326286 C-5.70299917,14.3822377 -5.64148123,14.3442352 -5.57975241,14.3186198 C-5.51802359,14.2930044 -5.45020689,14.280197 -5.37630027,14.280197 C-5.30827259,14.280197 -5.24507498,14.2906949 -5.18670555,14.3116911 C-5.12833612,14.3326873 -5.07815596,14.3635512 -5.03616356,14.4042839 C-4.99417116,14.4450165 -4.96120763,14.4958265 -4.93727196,14.5567155 C-4.91333629,14.6176045 -4.90136864,14.6879407 -4.90136864,14.7677262 Z M-3.16552853,14.7677262 L-3.16552853,16.1786637 L-3.65053828,16.1786637 L-3.65053828,14.7387516 L-4.01461053,15.1028239 L-4.35600701,14.7387516 L-4.02846795,14.4326286 C-3.96715905,14.3822377 -3.90564112,14.3442352 -3.84391229,14.3186198 C-3.78218347,14.2930044 -3.71436677,14.280197 -3.64046015,14.280197 C-3.57243247,14.280197 -3.50923486,14.2906949 -3.45086543,14.3116911 C-3.392496,14.3326873 -3.34231584,14.3635512 -3.30032344,14.4042839 C-3.25833105,14.4450165 -3.22536751,14.4958265 -3.20143185,14.5567155 C-3.17749618,14.6176045 -3.16552853,14.6879407 -3.16552853,14.7677262 Z M-0.622178669,14.2776774 C-0.521396918,14.2776774 -0.431324579,14.2944741 -0.35195895,14.3280681 C-0.272593321,14.361662 -0.205406495,14.407223 -0.150396456,14.4647526 C-0.0953864171,14.5222822 -0.0531846919,14.5890491 -0.0237900146,14.6650553 C0.00560466277,14.7410616 0.020301781,14.8214758 0.020301781,14.9063005 L0.020301781,15.5487809 C0.020301781,15.6336055 0.00476482744,15.7133899 -0.0263095458,15.7881364 C-0.057383919,15.8628828 -0.100215521,15.92839 -0.154805636,15.9846598 C-0.209395751,16.0409296 -0.273643153,16.0852309 -0.347549771,16.1175651 C-0.421456388,16.1498992 -0.501240744,16.166066 -0.586905232,16.166066 L-1.96634855,16.166066 C-2.05117319,16.166066 -2.13284718,16.1501092 -2.21137296,16.118195 C-2.28989874,16.0862807 -2.35939511,16.0423993 -2.41986416,15.9865494 C-2.48033321,15.9306996 -2.5288337,15.8651924 -2.56536709,15.790026 C-2.60190047,15.7148596 -2.62016689,15.6344454 -2.62016689,15.5487809 L-2.62016689,14.8269352 C-2.62016689,14.7446301 -2.6012706,14.6696748 -2.56347744,14.6020671 C-2.52568428,14.5344593 -2.476134,14.4767206 -2.4148251,14.4288493 C-2.3535162,14.380978 -2.28422979,14.3438153 -2.20696378,14.31736 C-2.12969777,14.2909048 -2.05159308,14.2776774 -1.97264738,14.2776774 L-0.622178669,14.2776774 Z M-2.14271573,14.7652067 L-2.14271573,15.6671989 L-0.444551721,15.6671989 L-0.444551721,14.7652067 L-2.14271573,14.7652067 Z M2.56365164,14.2776774 C2.66443339,14.2776774 2.75450573,14.2944741 2.83387136,14.3280681 C2.91323699,14.361662 2.98042381,14.407223 3.03543385,14.4647526 C3.09044389,14.5222822 3.13264561,14.5890491 3.16204029,14.6650553 C3.19143497,14.7410616 3.20613209,14.8214758 3.20613209,14.9063005 L3.20613209,15.5487809 C3.20613209,15.6336055 3.19059513,15.7133899 3.15952076,15.7881364 C3.12844639,15.8628828 3.08561479,15.92839 3.03102467,15.9846598 C2.97643456,16.0409296 2.91218715,16.0852309 2.83828054,16.1175651 C2.76437392,16.1498992 2.68458956,16.166066 2.59892507,16.166066 L1.21948176,16.166066 C1.13465712,16.166066 1.05298313,16.1501092 0.974457349,16.118195 C0.895931568,16.0862807 0.826435195,16.0423993 0.765966144,15.9865494 C0.705497094,15.9306996 0.656996604,15.8651924 0.620463219,15.790026 C0.583929834,15.7148596 0.565663416,15.6344454 0.565663416,15.5487809 L0.565663416,14.8269352 C0.565663416,14.7446301 0.584559711,14.6696748 0.622352867,14.6020671 C0.660146024,14.5344593 0.709696308,14.4767206 0.771005207,14.4288493 C0.832314105,14.380978 0.90160052,14.3438153 0.978866529,14.31736 C1.05613254,14.2909048 1.13423722,14.2776774 1.21318293,14.2776774 L2.56365164,14.2776774 Z M1.04311457,14.7652067 L1.04311457,15.6671989 L2.74127859,15.6671989 L2.74127859,14.7652067 L1.04311457,14.7652067 Z M5.74948194,14.2776774 C5.8502637,14.2776774 5.94033603,14.2944741 6.01970166,14.3280681 C6.09906729,14.361662 6.16625412,14.407223 6.22126416,14.4647526 C6.2762742,14.5222822 6.31847592,14.5890491 6.3478706,14.6650553 C6.37726528,14.7410616 6.39196239,14.8214758 6.39196239,14.9063005 L6.39196239,15.5487809 C6.39196239,15.6336055 6.37642544,15.7133899 6.34535107,15.7881364 C6.31427669,15.8628828 6.27144509,15.92839 6.21685498,15.9846598 C6.16226486,16.0409296 6.09801746,16.0852309 6.02411084,16.1175651 C5.95020423,16.1498992 5.87041987,16.166066 5.78475538,16.166066 L4.40531206,16.166066 C4.32048742,16.166066 4.23881344,16.1501092 4.16028766,16.118195 C4.08176188,16.0862807 4.0122655,16.0423993 3.95179645,15.9865494 C3.8913274,15.9306996 3.84282691,15.8651924 3.80629353,15.790026 C3.76976014,15.7148596 3.75149372,15.6344454 3.75149372,15.5487809 L3.75149372,14.8269352 C3.75149372,14.7446301 3.77039002,14.6696748 3.80818317,14.6020671 C3.84597633,14.5344593 3.89552662,14.4767206 3.95683551,14.4288493 C4.01814441,14.380978 4.08743083,14.3438153 4.16469684,14.31736 C4.24196284,14.2909048 4.32006753,14.2776774 4.39901323,14.2776774 L5.74948194,14.2776774 Z M4.22894488,14.7652067 L4.22894488,15.6671989 L5.92710889,15.6671989 L5.92710889,14.7652067 L4.22894488,14.7652067 Z M8.12780251,14.7677262 L8.12780251,16.1786637 L7.64279276,16.1786637 L7.64279276,14.7387516 L7.2787205,15.1028239 L6.93732403,14.7387516 L7.26486308,14.4326286 C7.32617198,14.3822377 7.38768992,14.3442352 7.44941874,14.3186198 C7.51114756,14.2930044 7.57896427,14.280197 7.65287088,14.280197 C7.72089857,14.280197 7.78409617,14.2906949 7.8424656,14.3116911 C7.90083504,14.3326873 7.9510152,14.3635512 7.99300759,14.4042839 C8.03499999,14.4450165 8.06796352,14.4958265 8.09189919,14.5567155 C8.11583486,14.6176045 8.12780251,14.6879407 8.12780251,14.7677262 Z M9.86364263,14.7677262 L9.86364263,16.1786637 L9.37863287,16.1786637 L9.37863287,14.7387516 L9.01456062,15.1028239 L8.67316414,14.7387516 L9.0007032,14.4326286 C9.0620121,14.3822377 9.12353003,14.3442352 9.18525886,14.3186198 C9.24698768,14.2930044 9.31480438,14.280197 9.388711,14.280197 C9.45673868,14.280197 9.51993629,14.2906949 9.57830572,14.3116911 C9.63667515,14.3326873 9.68685531,14.3635512 9.72884771,14.4042839 C9.7708401,14.4450165 9.80380364,14.4958265 9.82773931,14.5567155 C9.85167497,14.6176045 9.86364263,14.6879407 9.86364263,14.7677262 Z M12.4069925,14.2776774 C12.5077742,14.2776774 12.5978466,14.2944741 12.6772122,14.3280681 C12.7565778,14.361662 12.8237647,14.407223 12.8787747,14.4647526 C12.9337847,14.5222822 12.9759865,14.5890491 13.0053811,14.6650553 C13.0347758,14.7410616 13.0494729,14.8214758 13.0494729,14.9063005 L13.0494729,15.5487809 C13.0494729,15.6336055 13.033936,15.7133899 13.0028616,15.7881364 C12.9717872,15.8628828 12.9289556,15.92839 12.8743655,15.9846598 C12.8197754,16.0409296 12.755528,16.0852309 12.6816214,16.1175651 C12.6077148,16.1498992 12.5279304,16.166066 12.4422659,16.166066 L11.0628226,16.166066 C10.977998,16.166066 10.896324,16.1501092 10.8177982,16.118195 C10.7392724,16.0862807 10.669776,16.0423993 10.609307,15.9865494 C10.5488379,15.9306996 10.5003374,15.8651924 10.4638041,15.790026 C10.4272707,15.7148596 10.4090043,15.6344454 10.4090043,15.5487809 L10.4090043,14.8269352 C10.4090043,14.7446301 10.4279006,14.6696748 10.4656937,14.6020671 C10.5034869,14.5344593 10.5530372,14.4767206 10.6143461,14.4288493 C10.6756549,14.380978 10.7449414,14.3438153 10.8222074,14.31736 C10.8994734,14.2909048 10.9775781,14.2776774 11.0565238,14.2776774 L12.4069925,14.2776774 Z M10.8864554,14.7652067 L10.8864554,15.6671989 L12.5846194,15.6671989 L12.5846194,14.7652067 L10.8864554,14.7652067 Z M14.785313,14.7677262 L14.785313,16.1786637 L14.3003033,16.1786637 L14.3003033,14.7387516 L13.936231,15.1028239 L13.5948346,14.7387516 L13.9223736,14.4326286 C13.9836825,14.3822377 14.0452005,14.3442352 14.1069293,14.3186198 C14.1686581,14.2930044 14.2364748,14.280197 14.3103814,14.280197 C14.3784091,14.280197 14.4416067,14.2906949 14.4999761,14.3116911 C14.5583456,14.3326873 14.6085257,14.3635512 14.6505181,14.4042839 C14.6925105,14.4450165 14.7254741,14.4958265 14.7494097,14.5567155 C14.7733454,14.6176045 14.785313,14.6879407 14.785313,14.7677262 Z M16.5211532,14.7677262 L16.5211532,16.1786637 L16.0361434,16.1786637 L16.0361434,14.7387516 L15.6720712,15.1028239 L15.3306747,14.7387516 L15.6582137,14.4326286 C15.7195226,14.3822377 15.7810406,14.3442352 15.8427694,14.3186198 C15.9044982,14.2930044 15.9723149,14.280197 16.0462215,14.280197 C16.1142492,14.280197 16.1774468,14.2906949 16.2358163,14.3116911 C16.2941857,14.3326873 16.3443658,14.3635512 16.3863582,14.4042839 C16.4283506,14.4450165 16.4613142,14.4958265 16.4852498,14.5567155 C16.5091855,14.6176045 16.5211532,14.6879407 16.5211532,14.7677262 Z M19.064503,14.2776774 C19.1652848,14.2776774 19.2553571,14.2944741 19.3347227,14.3280681 C19.4140884,14.361662 19.4812752,14.407223 19.5362852,14.4647526 C19.5912953,14.5222822 19.633497,14.5890491 19.6628917,14.6650553 C19.6922864,14.7410616 19.7069835,14.8214758 19.7069835,14.9063005 L19.7069835,15.5487809 C19.7069835,15.6336055 19.6914465,15.7133899 19.6603721,15.7881364 C19.6292978,15.8628828 19.5864662,15.92839 19.5318761,15.9846598 C19.4772859,16.0409296 19.4130385,16.0852309 19.3391319,16.1175651 C19.2652253,16.1498992 19.1854409,16.166066 19.0997765,16.166066 L17.7203331,16.166066 C17.6355085,16.166066 17.5538345,16.1501092 17.4753087,16.118195 C17.396783,16.0862807 17.3272866,16.0423993 17.2668175,15.9865494 C17.2063485,15.9306996 17.157848,15.8651924 17.1213146,15.790026 C17.0847812,15.7148596 17.0665148,15.6344454 17.0665148,15.5487809 L17.0665148,14.8269352 C17.0665148,14.7446301 17.0854111,14.6696748 17.1232042,14.6020671 C17.1609974,14.5344593 17.2105477,14.4767206 17.2718566,14.4288493 C17.3331655,14.380978 17.4024519,14.3438153 17.4797179,14.31736 C17.5569839,14.2909048 17.6350886,14.2776774 17.7140343,14.2776774 L19.064503,14.2776774 Z M17.543966,14.7652067 L17.543966,15.6671989 L19.24213,15.6671989 L19.24213,14.7652067 L17.543966,14.7652067 Z M21.4428236,14.7677262 L21.4428236,16.1786637 L20.9578138,16.1786637 L20.9578138,14.7387516 L20.5937416,15.1028239 L20.2523451,14.7387516 L20.5798842,14.4326286 C20.6411931,14.3822377 20.702711,14.3442352 20.7644398,14.3186198 C20.8261686,14.2930044 20.8939853,14.280197 20.967892,14.280197 C21.0359196,14.280197 21.0991172,14.2906949 21.1574867,14.3116911 C21.2158561,14.3326873 21.2660363,14.3635512 21.3080287,14.4042839 C21.3500211,14.4450165 21.3829846,14.4958265 21.4069203,14.5567155 C21.4308559,14.6176045 21.4428236,14.6879407 21.4428236,14.7677262 Z M23.1786637,14.7677262 L23.1786637,16.1786637 L22.6936539,16.1786637 L22.6936539,14.7387516 L22.3295817,15.1028239 L21.9881852,14.7387516 L22.3157243,14.4326286 C22.3770332,14.3822377 22.4385511,14.3442352 22.5002799,14.3186198 C22.5620088,14.2930044 22.6298255,14.280197 22.7037321,14.280197 C22.7717598,14.280197 22.8349574,14.2906949 22.8933268,14.3116911 C22.9516962,14.3326873 23.0018764,14.3635512 23.0438688,14.4042839 C23.0858612,14.4450165 23.1188247,14.4958265 23.1427604,14.5567155 C23.166696,14.6176045 23.1786637,14.6879407 23.1786637,14.7677262 Z M-8.08719895,18.7677262 L-8.08719895,20.1786637 L-8.5722087,20.1786637 L-8.5722087,18.7387516 L-8.93628095,19.1028239 L-9.27767743,18.7387516 L-8.95013838,18.4326286 C-8.88882948,18.3822377 -8.82731154,18.3442352 -8.76558272,18.3186198 C-8.70385389,18.2930044 -8.63603719,18.280197 -8.56213057,18.280197 C-8.49410289,18.280197 -8.43090528,18.2906949 -8.37253585,18.3116911 C-8.31416642,18.3326873 -8.26398626,18.3635512 -8.22199387,18.4042839 C-8.18000147,18.4450165 -8.14703793,18.4958265 -8.12310227,18.5567155 C-8.0991666,18.6176045 -8.08719895,18.6879407 -8.08719895,18.7677262 Z M-6.20670549,18.7677262 L-6.20670549,20.1786637 L-6.69171524,20.1786637 L-6.69171524,18.7387516 L-7.0557875,19.1028239 L-7.39718397,18.7387516 L-7.06964492,18.4326286 C-7.00833602,18.3822377 -6.94681808,18.3442352 -6.88508926,18.3186198 C-6.82336044,18.2930044 -6.75554373,18.280197 -6.68163712,18.280197 C-6.61360943,18.280197 -6.55041183,18.2906949 -6.4920424,18.3116911 C-6.43367296,18.3326873 -6.3834928,18.3635512 -6.34150041,18.4042839 C-6.29950801,18.4450165 -6.26654447,18.4958265 -6.24260881,18.5567155 C-6.21867314,18.6176045 -6.20670549,18.6879407 -6.20670549,18.7677262 Z M-3.51870229,18.2776774 C-3.41792054,18.2776774 -3.3278482,18.2944741 -3.24848257,18.3280681 C-3.16911694,18.361662 -3.10193012,18.407223 -3.04692008,18.4647526 C-2.99191004,18.5222822 -2.94970831,18.5890491 -2.92031364,18.6650553 C-2.89091896,18.7410616 -2.87622184,18.8214758 -2.87622184,18.9063005 L-2.87622184,19.5487809 C-2.87622184,19.6336055 -2.89175879,19.7133899 -2.92283317,19.7881364 C-2.95390754,19.8628828 -2.99673914,19.92839 -3.05132926,19.9846598 C-3.10591937,20.0409296 -3.17016677,20.0852309 -3.24407339,20.1175651 C-3.31798001,20.1498992 -3.39776436,20.166066 -3.48342885,20.166066 L-4.86287217,20.166066 C-4.94769681,20.166066 -5.0293708,20.1501092 -5.10789658,20.118195 C-5.18642236,20.0862807 -5.25591873,20.0423993 -5.31638778,19.9865494 C-5.37685683,19.9306996 -5.42535732,19.8651924 -5.46189071,19.790026 C-5.49842409,19.7148596 -5.51669051,19.6344454 -5.51669051,19.5487809 L-5.51669051,18.8269352 C-5.51669051,18.7446301 -5.49779422,18.6696748 -5.46000106,18.6020671 C-5.4222079,18.5344593 -5.37265762,18.4767206 -5.31134872,18.4288493 C-5.25003982,18.380978 -5.18075341,18.3438153 -5.1034874,18.31736 C-5.02622139,18.2909048 -4.9481167,18.2776774 -4.869171,18.2776774 L-3.51870229,18.2776774 Z M-5.03923935,18.7652067 L-5.03923935,19.6671989 L-3.34107534,19.6671989 L-3.34107534,18.7652067 L-5.03923935,18.7652067 Z M-0.995728382,18.7677262 L-0.995728382,20.1786637 L-1.48073813,20.1786637 L-1.48073813,18.7387516 L-1.84481039,19.1028239 L-2.18620686,18.7387516 L-1.85866781,18.4326286 C-1.79735891,18.3822377 -1.73584097,18.3442352 -1.67411215,18.3186198 C-1.61238333,18.2930044 -1.54456663,18.280197 -1.47066001,18.280197 C-1.40263233,18.280197 -1.33943472,18.2906949 -1.28106529,18.3116911 C-1.22269586,18.3326873 -1.1725157,18.3635512 -1.1305233,18.4042839 C-1.0885309,18.4450165 -1.05556737,18.4958265 -1.0316317,18.5567155 C-1.00769604,18.6176045 -0.995728382,18.6879407 -0.995728382,18.7677262 Z M0.884765077,18.7677262 L0.884765077,20.1786637 L0.399755325,20.1786637 L0.399755325,18.7387516 L0.0356830705,19.1028239 L-0.305713404,18.7387516 L0.021825649,18.4326286 C0.0831345475,18.3822377 0.144652485,18.3442352 0.206381308,18.3186198 C0.26811013,18.2930044 0.335926833,18.280197 0.40983345,18.280197 C0.477861132,18.280197 0.54105874,18.2906949 0.599428171,18.3116911 C0.657797602,18.3326873 0.707977762,18.3635512 0.749970159,18.4042839 C0.791962555,18.4450165 0.824926092,18.4958265 0.848861757,18.5567155 C0.872797423,18.6176045 0.884765077,18.6879407 0.884765077,18.7677262 Z M3.57276828,18.2776774 C3.67355003,18.2776774 3.76362237,18.2944741 3.842988,18.3280681 C3.92235362,18.361662 3.98954045,18.407223 4.04455049,18.4647526 C4.09956053,18.5222822 4.14176225,18.5890491 4.17115693,18.6650553 C4.20055161,18.7410616 4.21524873,18.8214758 4.21524873,18.9063005 L4.21524873,19.5487809 C4.21524873,19.6336055 4.19971177,19.7133899 4.1686374,19.7881364 C4.13756303,19.8628828 4.09473142,19.92839 4.04014131,19.9846598 C3.98555119,20.0409296 3.92130379,20.0852309 3.84739717,20.1175651 C3.77349056,20.1498992 3.6937062,20.166066 3.60804171,20.166066 L2.22859839,20.166066 C2.14377375,20.166066 2.06209977,20.1501092 1.98357399,20.118195 C1.90504821,20.0862807 1.83555183,20.0423993 1.77508278,19.9865494 C1.71461373,19.9306996 1.66611324,19.8651924 1.62957986,19.790026 C1.59304647,19.7148596 1.57478005,19.6344454 1.57478005,19.5487809 L1.57478005,18.8269352 C1.57478005,18.7446301 1.59367635,18.6696748 1.63146951,18.6020671 C1.66926266,18.5344593 1.71881295,18.4767206 1.78012185,18.4288493 C1.84143074,18.380978 1.91071716,18.3438153 1.98798317,18.31736 C2.06524918,18.2909048 2.14335386,18.2776774 2.22229957,18.2776774 L3.57276828,18.2776774 Z M2.05223121,18.7652067 L2.05223121,19.6671989 L3.75039522,19.6671989 L3.75039522,18.7652067 L2.05223121,18.7652067 Z M6.90325193,18.2776774 C7.00403368,18.2776774 7.09410602,18.2944741 7.17347164,18.3280681 C7.25283727,18.361662 7.3200241,18.407223 7.37503414,18.4647526 C7.43004418,18.5222822 7.4722459,18.5890491 7.50164058,18.6650553 C7.53103526,18.7410616 7.54573238,18.8214758 7.54573238,18.9063005 L7.54573238,19.5487809 C7.54573238,19.6336055 7.53019542,19.7133899 7.49912105,19.7881364 C7.46804668,19.8628828 7.42521507,19.92839 7.37062496,19.9846598 C7.31603484,20.0409296 7.25178744,20.0852309 7.17788082,20.1175651 C7.10397421,20.1498992 7.02418985,20.166066 6.93852536,20.166066 L5.55908204,20.166066 C5.4742574,20.166066 5.39258342,20.1501092 5.31405764,20.118195 C5.23553186,20.0862807 5.16603548,20.0423993 5.10556643,19.9865494 C5.04509738,19.9306996 4.99659689,19.8651924 4.96006351,19.790026 C4.92353012,19.7148596 4.9052637,19.6344454 4.9052637,19.5487809 L4.9052637,18.8269352 C4.9052637,18.7446301 4.92416,18.6696748 4.96195316,18.6020671 C4.99974631,18.5344593 5.0492966,18.4767206 5.1106055,18.4288493 C5.17191439,18.380978 5.24120081,18.3438153 5.31846682,18.31736 C5.39573283,18.2909048 5.47383751,18.2776774 5.55278322,18.2776774 L6.90325193,18.2776774 Z M5.38271486,18.7652067 L5.38271486,19.6671989 L7.08087887,19.6671989 L7.08087887,18.7652067 L5.38271486,18.7652067 Z M9.42622583,18.7677262 L9.42622583,20.1786637 L8.94121608,20.1786637 L8.94121608,18.7387516 L8.57714383,19.1028239 L8.23574735,18.7387516 L8.56328641,18.4326286 C8.62459531,18.3822377 8.68611324,18.3442352 8.74784207,18.3186198 C8.80957089,18.2930044 8.87738759,18.280197 8.95129421,18.280197 C9.01932189,18.280197 9.0825195,18.2906949 9.14088893,18.3116911 C9.19925836,18.3326873 9.24943852,18.3635512 9.29143092,18.4042839 C9.33342331,18.4450165 9.36638685,18.4958265 9.39032252,18.5567155 C9.41425818,18.6176045 9.42622583,18.6879407 9.42622583,18.7677262 Z M12.114229,18.2776774 C12.2150108,18.2776774 12.3050831,18.2944741 12.3844488,18.3280681 C12.4638144,18.361662 12.5310012,18.407223 12.5860112,18.4647526 C12.6410213,18.5222822 12.683223,18.5890491 12.7126177,18.6650553 C12.7420124,18.7410616 12.7567095,18.8214758 12.7567095,18.9063005 L12.7567095,19.5487809 C12.7567095,19.6336055 12.7411725,19.7133899 12.7100982,19.7881364 C12.6790238,19.8628828 12.6361922,19.92839 12.5816021,19.9846598 C12.527012,20.0409296 12.4627645,20.0852309 12.3888579,20.1175651 C12.3149513,20.1498992 12.235167,20.166066 12.1495025,20.166066 L10.7700592,20.166066 C10.6852345,20.166066 10.6035605,20.1501092 10.5250347,20.118195 C10.446509,20.0862807 10.3770126,20.0423993 10.3165435,19.9865494 C10.2560745,19.9306996 10.207574,19.8651924 10.1710406,19.790026 C10.1345072,19.7148596 10.1162408,19.6344454 10.1162408,19.5487809 L10.1162408,18.8269352 C10.1162408,18.7446301 10.1351371,18.6696748 10.1729303,18.6020671 C10.2107234,18.5344593 10.2602737,18.4767206 10.3215826,18.4288493 C10.3828915,18.380978 10.4521779,18.3438153 10.5294439,18.31736 C10.6067099,18.2909048 10.6848146,18.2776774 10.7637603,18.2776774 L12.114229,18.2776774 Z M10.593692,18.7652067 L10.593692,19.6671989 L12.291856,19.6671989 L12.291856,18.7652067 L10.593692,18.7652067 Z M15.4447127,18.2776774 C15.5454944,18.2776774 15.6355668,18.2944741 15.7149324,18.3280681 C15.794298,18.361662 15.8614849,18.407223 15.9164949,18.4647526 C15.9715049,18.5222822 16.0137067,18.5890491 16.0431013,18.6650553 C16.072496,18.7410616 16.0871931,18.8214758 16.0871931,18.9063005 L16.0871931,19.5487809 C16.0871931,19.6336055 16.0716562,19.7133899 16.0405818,19.7881364 C16.0095074,19.8628828 15.9666758,19.92839 15.9120857,19.9846598 C15.8574956,20.0409296 15.7932482,20.0852309 15.7193416,20.1175651 C15.645435,20.1498992 15.5656506,20.166066 15.4799861,20.166066 L14.1005428,20.166066 C14.0157182,20.166066 13.9340442,20.1501092 13.8555184,20.118195 C13.7769926,20.0862807 13.7074962,20.0423993 13.6470272,19.9865494 C13.5865581,19.9306996 13.5380576,19.8651924 13.5015243,19.790026 C13.4649909,19.7148596 13.4467245,19.6344454 13.4467245,19.5487809 L13.4467245,18.8269352 C13.4467245,18.7446301 13.4656208,18.6696748 13.5034139,18.6020671 C13.5412071,18.5344593 13.5907574,18.4767206 13.6520663,18.4288493 C13.7133752,18.380978 13.7826616,18.3438153 13.8599276,18.31736 C13.9371936,18.2909048 14.0152983,18.2776774 14.094244,18.2776774 L15.4447127,18.2776774 Z M13.9241756,18.7652067 L13.9241756,19.6671989 L15.6223396,19.6671989 L15.6223396,18.7652067 L13.9241756,18.7652067 Z M18.7751963,18.2776774 C18.8759781,18.2776774 18.9660504,18.2944741 19.0454161,18.3280681 C19.1247817,18.361662 19.1919685,18.407223 19.2469785,18.4647526 C19.3019886,18.5222822 19.3441903,18.5890491 19.373585,18.6650553 C19.4029797,18.7410616 19.4176768,18.8214758 19.4176768,18.9063005 L19.4176768,19.5487809 C19.4176768,19.6336055 19.4021398,19.7133899 19.3710655,19.7881364 C19.3399911,19.8628828 19.2971595,19.92839 19.2425694,19.9846598 C19.1879793,20.0409296 19.1237318,20.0852309 19.0498252,20.1175651 C18.9759186,20.1498992 18.8961343,20.166066 18.8104698,20.166066 L17.4310265,20.166066 C17.3462018,20.166066 17.2645278,20.1501092 17.186002,20.118195 C17.1074763,20.0862807 17.0379799,20.0423993 16.9775108,19.9865494 C16.9170418,19.9306996 16.8685413,19.8651924 16.8320079,19.790026 C16.7954745,19.7148596 16.7772081,19.6344454 16.7772081,19.5487809 L16.7772081,18.8269352 C16.7772081,18.7446301 16.7961044,18.6696748 16.8338976,18.6020671 C16.8716907,18.5344593 16.921241,18.4767206 16.9825499,18.4288493 C17.0438588,18.380978 17.1131452,18.3438153 17.1904112,18.31736 C17.2676772,18.2909048 17.3457819,18.2776774 17.4247276,18.2776774 L18.7751963,18.2776774 Z M17.2546593,18.7652067 L17.2546593,19.6671989 L18.9528233,19.6671989 L18.9528233,18.7652067 L17.2546593,18.7652067 Z M21.2981702,18.7677262 L21.2981702,20.1786637 L20.8131605,20.1786637 L20.8131605,18.7387516 L20.4490882,19.1028239 L20.1076918,18.7387516 L20.4352308,18.4326286 C20.4965397,18.3822377 20.5580577,18.3442352 20.6197865,18.3186198 C20.6815153,18.2930044 20.749332,18.280197 20.8232386,18.280197 C20.8912663,18.280197 20.9544639,18.2906949 21.0128333,18.3116911 C21.0712028,18.3326873 21.1213829,18.3635512 21.1633753,18.4042839 C21.2053677,18.4450165 21.2383313,18.4958265 21.2622669,18.5567155 C21.2862026,18.6176045 21.2981702,18.6879407 21.2981702,18.7677262 Z M23.1786637,18.7677262 L23.1786637,20.1786637 L22.6936539,20.1786637 L22.6936539,18.7387516 L22.3295817,19.1028239 L21.9881852,18.7387516 L22.3157243,18.4326286 C22.3770332,18.3822377 22.4385511,18.3442352 22.5002799,18.3186198 C22.5620088,18.2930044 22.6298255,18.280197 22.7037321,18.280197 C22.7717598,18.280197 22.8349574,18.2906949 22.8933268,18.3116911 C22.9516962,18.3326873 23.0018764,18.3635512 23.0438688,18.4042839 C23.0858612,18.4450165 23.1188247,18.4958265 23.1427604,18.5567155 C23.166696,18.6176045 23.1786637,18.6879407 23.1786637,18.7677262 Z M-7.27968921,22.2776774 C-7.17890746,22.2776774 -7.08883512,22.2944741 -7.00946949,22.3280681 C-6.93010386,22.361662 -6.86291703,22.407223 -6.80790699,22.4647526 C-6.75289695,22.5222822 -6.71069523,22.5890491 -6.68130055,22.6650553 C-6.65190587,22.7410616 -6.63720876,22.8214758 -6.63720876,22.9063005 L-6.63720876,23.5487809 C-6.63720876,23.6336055 -6.65274571,23.7133899 -6.68382008,23.7881364 C-6.71489446,23.8628828 -6.75772606,23.92839 -6.81231617,23.9846598 C-6.86690629,24.0409296 -6.93115369,24.0852309 -7.00506031,24.1175651 C-7.07896693,24.1498992 -7.15875128,24.166066 -7.24441577,24.166066 L-8.62385909,24.166066 C-8.70868373,24.166066 -8.79035771,24.1501092 -8.8688835,24.118195 C-8.94740928,24.0862807 -9.01690565,24.0423993 -9.0773747,23.9865494 C-9.13784375,23.9306996 -9.18634424,23.8651924 -9.22287763,23.790026 C-9.25941101,23.7148596 -9.27767743,23.6344454 -9.27767743,23.5487809 L-9.27767743,22.8269352 C-9.27767743,22.7446301 -9.25878113,22.6696748 -9.22098798,22.6020671 C-9.18319482,22.5344593 -9.13364454,22.4767206 -9.07233564,22.4288493 C-9.01102674,22.380978 -8.94174032,22.3438153 -8.86447432,22.31736 C-8.78720831,22.2909048 -8.70910362,22.2776774 -8.63015792,22.2776774 L-7.27968921,22.2776774 Z M-8.80022627,22.7652067 L-8.80022627,23.6671989 L-7.10206226,23.6671989 L-7.10206226,22.7652067 L-8.80022627,22.7652067 Z M-4.09556166,22.2776774 C-3.99477991,22.2776774 -3.90470757,22.2944741 -3.82534194,22.3280681 C-3.74597632,22.361662 -3.67878949,22.407223 -3.62377945,22.4647526 C-3.56876941,22.5222822 -3.52656769,22.5890491 -3.49717301,22.6650553 C-3.46777833,22.7410616 -3.45308121,22.8214758 -3.45308121,22.9063005 L-3.45308121,23.5487809 C-3.45308121,23.6336055 -3.46861817,23.7133899 -3.49969254,23.7881364 C-3.53076691,23.8628828 -3.57359852,23.92839 -3.62818863,23.9846598 C-3.68277875,24.0409296 -3.74702615,24.0852309 -3.82093277,24.1175651 C-3.89483938,24.1498992 -3.97462374,24.166066 -4.06028823,24.166066 L-5.43973155,24.166066 C-5.52455619,24.166066 -5.60623017,24.1501092 -5.68475595,24.118195 C-5.76328173,24.0862807 -5.83277811,24.0423993 -5.89324716,23.9865494 C-5.95371621,23.9306996 -6.0022167,23.8651924 -6.03875008,23.790026 C-6.07528347,23.7148596 -6.09354989,23.6344454 -6.09354989,23.5487809 L-6.09354989,22.8269352 C-6.09354989,22.7446301 -6.07465359,22.6696748 -6.03686043,22.6020671 C-5.99906728,22.5344593 -5.94951699,22.4767206 -5.88820809,22.4288493 C-5.8268992,22.380978 -5.75761278,22.3438153 -5.68034677,22.31736 C-5.60308076,22.2909048 -5.52497608,22.2776774 -5.44603037,22.2776774 L-4.09556166,22.2776774 Z M-5.61609873,22.7652067 L-5.61609873,23.6671989 L-3.91793472,23.6671989 L-3.91793472,22.7652067 L-5.61609873,22.7652067 Z M-1.71894386,22.7677262 L-1.71894386,24.1786637 L-2.20395361,24.1786637 L-2.20395361,22.7387516 L-2.56802587,23.1028239 L-2.90942234,22.7387516 L-2.58188329,22.4326286 C-2.52057439,22.3822377 -2.45905645,22.3442352 -2.39732763,22.3186198 C-2.33559881,22.2930044 -2.26778211,22.280197 -2.19387549,22.280197 C-2.12584781,22.280197 -2.0626502,22.2906949 -2.00428077,22.3116911 C-1.94591134,22.3326873 -1.89573118,22.3635512 -1.85373878,22.4042839 C-1.81174638,22.4450165 -1.77878285,22.4958265 -1.75484718,22.5567155 C-1.73091152,22.6176045 -1.71894386,22.6879407 -1.71894386,22.7677262 Z M0.822703232,22.2776774 C0.923484983,22.2776774 1.01355732,22.2944741 1.09292295,22.3280681 C1.17228858,22.361662 1.23947541,22.407223 1.29448544,22.4647526 C1.34949548,22.5222822 1.39169721,22.5890491 1.42109189,22.6650553 C1.45048656,22.7410616 1.46518368,22.8214758 1.46518368,22.9063005 L1.46518368,23.5487809 C1.46518368,23.6336055 1.44964673,23.7133899 1.41857235,23.7881364 C1.38749798,23.8628828 1.34466638,23.92839 1.29007626,23.9846598 C1.23548615,24.0409296 1.17123875,24.0852309 1.09733213,24.1175651 C1.02342551,24.1498992 0.943641156,24.166066 0.857976668,24.166066 L-0.521466651,24.166066 C-0.606291291,24.166066 -0.687965276,24.1501092 -0.766491057,24.118195 C-0.845016838,24.0862807 -0.914513212,24.0423993 -0.974982262,23.9865494 C-1.03545131,23.9306996 -1.0839518,23.8651924 -1.12048519,23.790026 C-1.15701857,23.7148596 -1.17528499,23.6344454 -1.17528499,23.5487809 L-1.17528499,22.8269352 C-1.17528499,22.7446301 -1.1563887,22.6696748 -1.11859554,22.6020671 C-1.08080238,22.5344593 -1.0312521,22.4767206 -0.9699432,22.4288493 C-0.908634301,22.380978 -0.839347887,22.3438153 -0.762081878,22.31736 C-0.684815869,22.2909048 -0.606711183,22.2776774 -0.527765478,22.2776774 L0.822703232,22.2776774 Z M-0.697833833,22.7652067 L-0.697833833,23.6671989 L1.00033018,23.6671989 L1.00033018,22.7652067 L-0.697833833,22.7652067 Z M3.19932103,22.7677262 L3.19932103,24.1786637 L2.71431128,24.1786637 L2.71431128,22.7387516 L2.35023903,23.1028239 L2.00884255,22.7387516 L2.33638161,22.4326286 C2.3976905,22.3822377 2.45920844,22.3442352 2.52093726,22.3186198 C2.58266609,22.2930044 2.65048279,22.280197 2.72438941,22.280197 C2.79241709,22.280197 2.8556147,22.2906949 2.91398413,22.3116911 C2.97235356,22.3326873 3.02253372,22.3635512 3.06452612,22.4042839 C3.10651851,22.4450165 3.13948205,22.4958265 3.16341771,22.5567155 C3.18735338,22.6176045 3.19932103,22.6879407 3.19932103,22.7677262 Z M5.74096813,22.2776774 C5.84174988,22.2776774 5.93182222,22.2944741 6.01118784,22.3280681 C6.09055347,22.361662 6.1577403,22.407223 6.21275034,22.4647526 C6.26776038,22.5222822 6.3099621,22.5890491 6.33935678,22.6650553 C6.36875146,22.7410616 6.38344858,22.8214758 6.38344858,22.9063005 L6.38344858,23.5487809 C6.38344858,23.6336055 6.36791162,23.7133899 6.33683725,23.7881364 C6.30576288,23.8628828 6.26293127,23.92839 6.20834116,23.9846598 C6.15375104,24.0409296 6.08950364,24.0852309 6.01559702,24.1175651 C5.94169041,24.1498992 5.86190605,24.166066 5.77624156,24.166066 L4.39679824,24.166066 C4.3119736,24.166066 4.23029962,24.1501092 4.15177384,24.118195 C4.07324806,24.0862807 4.00375168,24.0423993 3.94328263,23.9865494 C3.88281358,23.9306996 3.83431309,23.8651924 3.79777971,23.790026 C3.76124632,23.7148596 3.7429799,23.6344454 3.7429799,23.5487809 L3.7429799,22.8269352 C3.7429799,22.7446301 3.7618762,22.6696748 3.79966936,22.6020671 C3.83746251,22.5344593 3.8870128,22.4767206 3.94832169,22.4288493 C4.00963059,22.380978 4.07891701,22.3438153 4.15618302,22.31736 C4.23344903,22.2909048 4.31155371,22.2776774 4.39049942,22.2776774 L5.74096813,22.2776774 Z M4.22043106,22.7652067 L4.22043106,23.6671989 L5.91859507,23.6671989 L5.91859507,22.7652067 L4.22043106,22.7652067 Z M8.11758593,22.7677262 L8.11758593,24.1786637 L7.63257618,24.1786637 L7.63257618,22.7387516 L7.26850392,23.1028239 L6.92710745,22.7387516 L7.2546465,22.4326286 C7.3159554,22.3822377 7.37747334,22.3442352 7.43920216,22.3186198 C7.50093098,22.2930044 7.56874768,22.280197 7.6426543,22.280197 C7.71068198,22.280197 7.77387959,22.2906949 7.83224902,22.3116911 C7.89061845,22.3326873 7.94079861,22.3635512 7.98279101,22.4042839 C8.02478341,22.4450165 8.05774694,22.4958265 8.08168261,22.5567155 C8.10561827,22.6176045 8.11758593,22.6879407 8.11758593,22.7677262 Z M9.85172328,22.7677262 L9.85172328,24.1786637 L9.36671353,24.1786637 L9.36671353,22.7387516 L9.00264127,23.1028239 L8.6612448,22.7387516 L8.98878385,22.4326286 C9.05009275,22.3822377 9.11161069,22.3442352 9.17333951,22.3186198 C9.23506833,22.2930044 9.30288504,22.280197 9.37679165,22.280197 C9.44481933,22.280197 9.50801694,22.2906949 9.56638637,22.3116911 C9.6247558,22.3326873 9.67493597,22.3635512 9.71692836,22.4042839 C9.75892076,22.4450165 9.79188429,22.4958265 9.81581996,22.5567155 C9.83975563,22.6176045 9.85172328,22.6879407 9.85172328,22.7677262 Z M11.5858606,22.7677262 L11.5858606,24.1786637 L11.1008509,24.1786637 L11.1008509,22.7387516 L10.7367786,23.1028239 L10.3953822,22.7387516 L10.7229212,22.4326286 C10.7842301,22.3822377 10.845748,22.3442352 10.9074769,22.3186198 C10.9692057,22.2930044 11.0370224,22.280197 11.110929,22.280197 C11.1789567,22.280197 11.2421543,22.2906949 11.3005237,22.3116911 C11.3588932,22.3326873 11.4090733,22.3635512 11.4510657,22.4042839 C11.4930581,22.4450165 11.5260216,22.4958265 11.5499573,22.5567155 C11.573893,22.6176045 11.5858606,22.6879407 11.5858606,22.7677262 Z M14.1275077,22.2776774 C14.2282895,22.2776774 14.3183618,22.2944741 14.3977274,22.3280681 C14.4770931,22.361662 14.5442799,22.407223 14.5992899,22.4647526 C14.6543,22.5222822 14.6965017,22.5890491 14.7258964,22.6650553 C14.7552911,22.7410616 14.7699882,22.8214758 14.7699882,22.9063005 L14.7699882,23.5487809 C14.7699882,23.6336055 14.7544512,23.7133899 14.7233768,23.7881364 C14.6923025,23.8628828 14.6494709,23.92839 14.5948808,23.9846598 C14.5402906,24.0409296 14.4760432,24.0852309 14.4021366,24.1175651 C14.32823,24.1498992 14.2484456,24.166066 14.1627812,24.166066 L12.7833378,24.166066 C12.6985132,24.166066 12.6168392,24.1501092 12.5383134,24.118195 C12.4597877,24.0862807 12.3902913,24.0423993 12.3298222,23.9865494 C12.2693532,23.9306996 12.2208527,23.8651924 12.1843193,23.790026 C12.1477859,23.7148596 12.1295195,23.6344454 12.1295195,23.5487809 L12.1295195,22.8269352 C12.1295195,22.7446301 12.1484158,22.6696748 12.186209,22.6020671 C12.2240021,22.5344593 12.2735524,22.4767206 12.3348613,22.4288493 C12.3961702,22.380978 12.4654566,22.3438153 12.5427226,22.31736 C12.6199886,22.2909048 12.6980933,22.2776774 12.777039,22.2776774 L14.1275077,22.2776774 Z M12.6069707,22.7652067 L12.6069707,23.6671989 L14.3051347,23.6671989 L14.3051347,22.7652067 L12.6069707,22.7652067 Z M17.3116353,22.2776774 C17.412417,22.2776774 17.5024894,22.2944741 17.581855,22.3280681 C17.6612206,22.361662 17.7284074,22.407223 17.7834175,22.4647526 C17.8384275,22.5222822 17.8806292,22.5890491 17.9100239,22.6650553 C17.9394186,22.7410616 17.9541157,22.8214758 17.9541157,22.9063005 L17.9541157,23.5487809 C17.9541157,23.6336055 17.9385788,23.7133899 17.9075044,23.7881364 C17.87643,23.8628828 17.8335984,23.92839 17.7790083,23.9846598 C17.7244182,24.0409296 17.6601708,24.0852309 17.5862642,24.1175651 C17.5123575,24.1498992 17.4325732,24.166066 17.3469087,24.166066 L15.9674654,24.166066 C15.8826407,24.166066 15.8009668,24.1501092 15.722441,24.118195 C15.6439152,24.0862807 15.5744188,24.0423993 15.5139498,23.9865494 C15.4534807,23.9306996 15.4049802,23.8651924 15.3684468,23.790026 C15.3319135,23.7148596 15.313647,23.6344454 15.313647,23.5487809 L15.313647,22.8269352 C15.313647,22.7446301 15.3325433,22.6696748 15.3703365,22.6020671 C15.4081297,22.5344593 15.4576799,22.4767206 15.5189888,22.4288493 C15.5802977,22.380978 15.6495841,22.3438153 15.7268502,22.31736 C15.8041162,22.2909048 15.8822209,22.2776774 15.9611666,22.2776774 L17.3116353,22.2776774 Z M15.7910982,22.7652067 L15.7910982,23.6671989 L17.4892622,23.6671989 L17.4892622,22.7652067 L15.7910982,22.7652067 Z M19.6882531,22.7677262 L19.6882531,24.1786637 L19.2032433,24.1786637 L19.2032433,22.7387516 L18.8391711,23.1028239 L18.4977746,22.7387516 L18.8253136,22.4326286 C18.8866225,22.3822377 18.9481405,22.3442352 19.0098693,22.3186198 C19.0715981,22.2930044 19.1394148,22.280197 19.2133214,22.280197 C19.2813491,22.280197 19.3445467,22.2906949 19.4029162,22.3116911 C19.4612856,22.3326873 19.5114658,22.3635512 19.5534582,22.4042839 C19.5954505,22.4450165 19.6284141,22.4958265 19.6523497,22.5567155 C19.6762854,22.6176045 19.6882531,22.6879407 19.6882531,22.7677262 Z M21.4223904,22.7677262 L21.4223904,24.1786637 L20.9373807,24.1786637 L20.9373807,22.7387516 L20.5733084,23.1028239 L20.2319119,22.7387516 L20.559451,22.4326286 C20.6207599,22.3822377 20.6822778,22.3442352 20.7440067,22.3186198 C20.8057355,22.2930044 20.8735522,22.280197 20.9474588,22.280197 C21.0154865,22.280197 21.0786841,22.2906949 21.1370535,22.3116911 C21.1954229,22.3326873 21.2456031,22.3635512 21.2875955,22.4042839 C21.3295879,22.4450165 21.3625514,22.4958265 21.3864871,22.5567155 C21.4104228,22.6176045 21.4223904,22.6879407 21.4223904,22.7677262 Z" id="01100011011011110110-copy-2" fill="#000000" style="mix-blend-mode: soft-light;" transform="translate(6.950493, 19.228171) rotate(-90.000000) translate(-6.950493, -19.228171) "></path>
        </g>
    </g>
</svg>